# 3ds Max Wavefront OBJ Exporter v0.97b - (c)2007 guruware
# File Created: 31.05.2015 18:45:35

mtllib mirror.mtl

#
# object Box01
#

v  2.9196 -2.0980 -0.0654
v  2.9196 2.1679 -0.0654
v  -2.8595 2.1679 -0.0654
v  -2.8595 -2.0980 -0.0654
v  3.3442 -2.5101 -0.1321
v  -3.3493 -2.5101 -0.1321
v  -3.3493 2.5455 -0.1321
v  3.3442 2.5455 -0.1321
v  3.3442 -2.5101 0.0000
v  3.3442 2.5455 0.0000
v  -3.3493 2.5455 0.0000
v  -3.3493 -2.5101 0.0000
v  3.1933 2.3946 0.0054
v  3.1933 -2.3592 0.0054
v  -3.1984 2.3946 0.0054
v  -3.1984 -2.3592 0.0054
v  3.1139 2.3152 0.0726
v  3.1139 -2.2798 0.0726
v  -3.1190 2.3152 0.0726
v  -3.1190 -2.2798 0.0726
# 20 vertices

vn 0.0000 0.0000 1.0000
vn 0.0000 0.0000 -1.0000
vn 1.0000 0.0000 0.0000
vn -0.0000 1.0000 0.0000
vn -1.0000 -0.0000 0.0000
vn 0.0000 -1.0000 0.0000
vn 0.0178 -0.0178 0.9997
vn 0.0178 0.0178 0.9997
vn 0.1096 0.1096 0.9879
vn 0.1096 -0.1096 0.9879
vn -0.0178 0.0178 0.9997
vn -0.1096 0.1096 0.9879
vn -0.0178 -0.0178 0.9997
vn -0.1096 -0.1096 0.9879
vn 0.3632 0.3632 0.8580
vn 0.3632 -0.3632 0.8580
vn -0.3632 0.3632 0.8580
vn -0.3632 -0.3632 0.8580
vn -0.5791 0.0000 0.8152
vn -0.5791 -0.0000 0.8152
vn 0.0000 -0.6838 0.7297
vn 0.4695 0.0000 0.8829
vn -0.0000 0.6047 0.7965
# 23 vertex normals

vt 1.0000 0.0000 0.0000
vt 0.0000 0.0000 0.0000
vt 0.0000 1.0000 0.0000
vt 1.0000 1.0000 0.0000
# 4 texture coords

g Box01
usemtl Material__25
s 2
f 1/1/1 2/2/1 3/3/1 4/4/1 
usemtl Material__26
s 1
f 5/2/2 6/3/2 7/4/2 8/1/2 
s 2
f 9/2/3 5/3/3 8/4/3 10/1/3 
s 4
f 10/2/4 8/3/4 7/4/4 11/1/4 
s 2
f 11/2/5 7/3/5 6/4/5 12/1/5 
s 4
f 12/2/6 6/3/6 5/4/6 9/1/6 
s 1
f 9/2/7 10/1/8 13/2/9 14/1/10 
f 10/2/8 11/1/11 15/3/12 13/2/9 
f 11/2/11 12/1/13 16/4/14 15/3/12 
f 12/2/13 9/1/7 14/1/10 16/4/14 
f 14/1/10 13/2/9 17/2/15 18/1/16 
f 13/2/9 15/3/12 19/3/17 17/2/15 
f 15/3/12 16/4/14 20/4/18 19/3/17 
f 16/4/14 14/1/10 18/1/16 20/4/18 
s 4
f 18/1/19 17/2/20 2/2/20 1/1/19 
s 8
f 17/2/21 19/3/21 3/3/21 2/2/21 
s 4
f 19/3/22 20/4/22 4/4/22 3/3/22 
s 8
f 20/4/23 18/1/23 1/1/23 4/4/23 
# 18 polygons

